<?xml version="1.0" encoding="utf-8"?>
<!-- Generator: Adobe Illustrator 26.5.0, SVG Export Plug-In . SVG Version: 6.00 Build 0)  -->
<svg version="1.1" id="Layer_1" xmlns="http://www.w3.org/2000/svg" xmlns:xlink="http://www.w3.org/1999/xlink" x="0px" y="0px"
	 width="1920px" height="5000px" viewBox="0 0 1920 5000" style="enable-background:new 0 0 1920 5000;" xml:space="preserve">
<style type="text/css">
	.st0{clip-path:url(#SVGID_00000126305840979419564190000013645546898685211297_);}
	.st1{clip-path:url(#SVGID_00000126305840979419564190000013645546898685211297_);fill:#FEFEFE;}
</style>
<g>
	<defs>
		<rect id="SVGID_1_" width="1920" height="1091"/>
	</defs>
	<clipPath id="SVGID_00000149348701454066720380000016975258879345408146_">
		<use xlink:href="#SVGID_1_"  style="overflow:visible;"/>
	</clipPath>
	<path style="clip-path:url(#SVGID_00000149348701454066720380000016975258879345408146_);" d="M-0.13-483.858
		c637.468,0,1274.936,0.009,1912.404-0.142c5.733-0.001,7.482,0.664,7.476,7.096c-0.222,244.555-0.188,489.11-0.188,733.665
		c-3.872,2.715-7.219,0.192-10.525-1.248c-46.488-20.256-94.795-34.623-144.498-44.346c-33.872-6.626-68.069-10.45-102.562-12.482
		c-20.252-1.193-40.472-1.53-60.664-1.006c-47.005,1.22-93.681,6.184-140.022,14.297c-72.817,12.748-143.752,32.625-213.615,56.453
		c-60.083,20.492-119.372,43.189-178.881,65.269c-95.009,35.252-191.304,66.164-290.824,86.171
		c-52.709,10.596-105.817,18.573-159.352,23.662c-43.01,4.088-86.122,5.993-129.282,7.909c-32.81,1.457-65.477,0.34-98.081-0.972
		c-67.998-2.735-135.344-11.545-201.684-27.366c-45.789-10.92-90.736-24.321-134.102-42.766
		c-16.801-7.146-33.066-15.399-49.398-23.531c-5.113-2.546-7.043-5.992-7.04-11.803C-0.841,70.664-0.859-203.673-0.833-478.01
		C-0.833-479.966-1.37-482.033-0.13-483.858z"/>
	<path style="clip-path:url(#SVGID_00000149348701454066720380000016975258879345408146_);fill:#FEFEFE;" d="M-0.13-375.858
		c0,275.589,0.027,551.178-0.16,826.767c-0.004,6.391,2.137,9.384,7.625,12.196c33.757,17.297,68.426,32.381,104.53,44.056
		c38.834,12.559,78.28,22.668,118.429,30.193c25.963,4.866,51.957,9.149,78.233,11.995c23.576,2.554,47.115,4.912,70.833,5.999
		c30.583,1.402,61.143,3.377,91.766,2.66c26.891-0.63,53.791-1.442,80.641-2.981c24.19-1.386,48.399-3.186,72.453-6.032
		c32.123-3.801,64.206-7.909,96.179-13.085c69.036-11.176,136.783-27.442,203.724-47.507
		c68.196-20.44,134.838-45.285,201.494-70.092c63.113-23.489,126.248-46.848,190.859-66.023
		c40.639-12.061,81.622-22.802,123.228-30.741c27.683-5.282,55.507-10.101,83.704-12.518c18.89-1.619,37.783-3.059,56.669-4.582
		c20.448-1.648,40.838-1.367,61.196-0.907c24.445,0.552,48.855,2.456,73.196,5.545c33.792,4.289,67.083,10.594,99.974,19.459
		c33.805,9.112,66.838,20.23,98.778,34.593c1.911,0.859,3.915,2.348,6.341,1.623c0,167.914-0.03,335.827,0.143,503.74
		c0.005,5.133-1.008,6.139-6.142,6.138c-636.398-0.149-1272.796-0.149-1909.193,0c-5.134,0.001-6.142-1.005-6.14-6.138
		C-1.618,455.714-1.633,42.926-1.54-369.861C-1.54-371.804-3.231-374.509-0.13-375.858z"/>
</g>
<g>
</g>
<g>
</g>
<g>
</g>
<g>
</g>
<g>
</g>
<g>
</g>
<g>
</g>
<g>
</g>
<g>
</g>
<g>
</g>
<g>
</g>
<g>
</g>
<g>
</g>
<g>
</g>
<g>
</g>
</svg>
