<?xml version="1.0" encoding="utf-8"?>
<!-- Generator: Adobe Illustrator 26.5.0, SVG Export Plug-In . SVG Version: 6.00 Build 0)  -->
<svg version="1.1" id="Layer_1" xmlns="http://www.w3.org/2000/svg" xmlns:xlink="http://www.w3.org/1999/xlink" x="0px" y="0px"
	 width="1920px" height="5000px" viewBox="0 0 1920 5000" style="enable-background:new 0 0 1920 5000;" xml:space="preserve">
<style type="text/css">
	.st0{clip-path:url(#SVGID_00000144324371372653108290000013720852483540574094_);}
	.st1{clip-path:url(#SVGID_00000183932622473369738200000003586985432414644105_);}
	.st2{clip-path:url(#SVGID_00000142148185703286052760000009541672948955215013_);fill:#FFFFFF;}
	.st3{clip-path:url(#SVGID_00000115502356882011812270000010200256988149743749_);fill:#010101;}
	.st4{clip-path:url(#SVGID_00000183932622473369738200000003586985432414644105_);fill:#FFFFFF;}
	.st5{fill:#FFFFFF;}
	.st6{clip-path:url(#SVGID_00000009558261651287566510000007542293616034138272_);fill:#010101;}
	.st7{opacity:0.5;fill:#FFFFFF;}
</style>
<g>
	<defs>
		<rect id="SVGID_1_" width="1920" height="5000"/>
	</defs>
	<clipPath id="SVGID_00000020372139920391835350000004786951587140604551_">
		<use xlink:href="#SVGID_1_"  style="overflow:visible;"/>
	</clipPath>
	<g style="clip-path:url(#SVGID_00000020372139920391835350000004786951587140604551_);">
		<defs>
			<rect id="SVGID_00000003077179799116347340000004537494946570607538_" x="-1.77" y="12.662" width="1921.77" height="4987.338"/>
		</defs>
		<clipPath id="SVGID_00000181790275519613944410000004832339826231782835_">
			<use xlink:href="#SVGID_00000003077179799116347340000004537494946570607538_"  style="overflow:visible;"/>
		</clipPath>
		<g style="clip-path:url(#SVGID_00000181790275519613944410000004832339826231782835_);">
			<g>
				<defs>
					<rect id="SVGID_00000090260598494749036230000018045410505947725448_" width="1920" height="1091"/>
				</defs>
				<clipPath id="SVGID_00000012453962211015381880000002964883918918662025_">
					<use xlink:href="#SVGID_00000090260598494749036230000018045410505947725448_"  style="overflow:visible;"/>
				</clipPath>
				<path style="clip-path:url(#SVGID_00000012453962211015381880000002964883918918662025_);fill:#FFFFFF;" d="M-0.13-483.858
					c637.468,0,1274.936,0.009,1912.404-0.142c5.733-0.001,7.482,0.664,7.476,7.096c-0.222,244.555-0.188,489.11-0.188,733.665
					c-3.872,2.715-7.219,0.192-10.525-1.248c-46.488-20.256-94.795-34.623-144.498-44.346
					c-33.872-6.626-68.069-10.45-102.562-12.482c-20.252-1.193-40.472-1.53-60.664-1.006c-47.005,1.22-93.681,6.184-140.022,14.297
					c-72.817,12.748-143.752,32.625-213.615,56.453c-60.083,20.492-119.372,43.189-178.881,65.269
					c-95.009,35.252-191.304,66.164-290.824,86.171c-52.709,10.596-105.817,18.573-159.352,23.662
					c-43.01,4.088-86.122,5.993-129.282,7.909c-32.81,1.457-65.477,0.34-98.081-0.972c-67.998-2.735-135.344-11.545-201.684-27.366
					c-45.789-10.92-90.736-24.321-134.102-42.766c-16.801-7.146-33.066-15.399-49.398-23.531c-5.113-2.546-7.043-5.992-7.04-11.803
					C-0.841,70.664-0.859-203.673-0.833-478.01C-0.833-479.966-1.37-482.033-0.13-483.858z"/>
			</g>
			<g>
				<defs>
					<rect id="SVGID_00000054973475276376778750000015716187691425303226_" width="1920" height="1091"/>
				</defs>
				<clipPath id="SVGID_00000134971834692709334600000012807085947954062992_">
					<use xlink:href="#SVGID_00000054973475276376778750000015716187691425303226_"  style="overflow:visible;"/>
				</clipPath>
				<path style="clip-path:url(#SVGID_00000134971834692709334600000012807085947954062992_);fill:#010101;" d="M-0.13-375.858
					c0,275.589,0.027,551.178-0.16,826.767c-0.004,6.391,2.137,9.384,7.625,12.196c33.757,17.297,68.426,32.381,104.53,44.056
					c38.834,12.559,78.28,22.668,118.429,30.193c25.963,4.866,51.957,9.149,78.233,11.995c23.576,2.554,47.115,4.912,70.833,5.999
					c30.583,1.402,61.143,3.377,91.766,2.66c26.891-0.63,53.791-1.442,80.641-2.981c24.19-1.386,48.399-3.186,72.453-6.032
					c32.123-3.801,64.206-7.909,96.179-13.085c69.036-11.176,136.783-27.442,203.724-47.507
					c68.196-20.44,134.838-45.285,201.494-70.092c63.113-23.489,126.248-46.848,190.859-66.023
					c40.639-12.061,81.622-22.802,123.228-30.741c27.683-5.282,55.507-10.101,83.704-12.518c18.89-1.619,37.783-3.059,56.669-4.582
					c20.448-1.648,40.838-1.367,61.196-0.907c24.445,0.552,48.855,2.456,73.196,5.545c33.792,4.289,67.083,10.594,99.974,19.459
					c33.805,9.112,66.838,20.23,98.778,34.593c1.911,0.859,3.915,2.348,6.341,1.623c0,167.914-0.03,335.827,0.143,503.74
					c0.005,5.133-1.008,6.139-6.142,6.138c-636.398-0.149-1272.796-0.149-1909.193,0c-5.134,0.001-6.142-1.005-6.14-6.138
					C-1.618,455.714-1.633,42.926-1.54-369.861C-1.54-371.804-3.231-374.509-0.13-375.858z"/>
			</g>
		</g>
		
			<rect x="-1.77" y="868.5" style="clip-path:url(#SVGID_00000181790275519613944410000004832339826231782835_);" width="1921.77" height="4131.5"/>
		
			<circle style="clip-path:url(#SVGID_00000181790275519613944410000004832339826231782835_);fill:#FFFFFF;" cx="1532.345" cy="826.087" r="387.655"/>
		<g style="clip-path:url(#SVGID_00000181790275519613944410000004832339826231782835_);">
			<path class="st5" d="M50.834,465.755c-3.129,0-6.104-0.616-8.925-1.847c-2.821-1.282-5.335-3.001-7.54-5.155
				c-2.154-2.206-3.873-4.719-5.155-7.54c-1.231-2.821-1.847-5.796-1.847-8.925c0-3.129,0.616-6.104,1.847-8.925
				c1.282-2.821,3.001-5.309,5.155-7.463c2.206-2.206,4.719-3.924,7.54-5.155c2.821-1.282,5.796-1.923,8.925-1.923
				s6.104,0.641,8.925,1.923c2.821,1.231,5.335,2.949,7.54,5.155c2.206,2.154,3.924,4.642,5.155,7.463
				c1.282,2.821,1.924,5.796,1.924,8.925c0,3.129-0.641,6.104-1.924,8.925c-1.231,2.821-2.949,5.335-5.155,7.54
				c-2.206,2.154-4.719,3.873-7.54,5.155C56.938,465.139,53.963,465.755,50.834,465.755z M50.834,456.983
				c2.052,0,3.95-0.359,5.694-1.077c1.744-0.769,3.257-1.821,4.539-3.155c1.334-1.334,2.359-2.898,3.078-4.693
				c0.718-1.795,1.077-3.719,1.077-5.771c0-2.103-0.359-4.027-1.077-5.771c-0.718-1.795-1.744-3.36-3.078-4.693
				c-1.282-1.334-2.796-2.359-4.539-3.078c-1.744-0.769-3.642-1.154-5.694-1.154s-3.95,0.385-5.694,1.154
				c-1.744,0.718-3.283,1.744-4.616,3.078c-1.282,1.334-2.283,2.898-3.001,4.693c-0.718,1.744-1.077,3.667-1.077,5.771
				c0,2.052,0.359,3.975,1.077,5.771c0.718,1.795,1.718,3.36,3.001,4.693c1.334,1.334,2.872,2.385,4.616,3.155
				C46.884,456.624,48.782,456.983,50.834,456.983z"/>
			<path class="st5" d="M118.577,513.31c-4.325,0-8.438-0.851-12.338-2.553c-3.829-1.773-7.232-4.148-10.21-7.126
				c-2.978-2.978-5.353-6.382-7.126-10.21c-1.702-3.9-2.553-7.977-2.553-12.231c0-4.325,0.851-8.402,2.553-12.231
				c1.773-3.9,4.148-7.339,7.126-10.317s6.382-5.318,10.21-7.02c3.9-1.773,8.012-2.659,12.338-2.659
				c4.254,0,8.296,0.886,12.125,2.659c3.9,1.702,7.339,4.042,10.317,7.02c3.049,2.978,5.424,6.417,7.126,10.317
				c1.773,3.829,2.659,7.906,2.659,12.231c0,4.254-0.886,8.331-2.659,12.231c-1.702,3.829-4.077,7.268-7.126,10.317
				c-2.978,2.978-6.417,5.318-10.317,7.02C126.873,512.46,122.832,513.31,118.577,513.31z M118.577,506.716
				c3.474,0,6.736-0.673,9.785-2.021c3.049-1.347,5.743-3.191,8.083-5.531c2.34-2.34,4.183-5.034,5.531-8.083
				c1.348-3.12,2.021-6.417,2.021-9.891c0-3.545-0.673-6.842-2.021-9.891s-3.191-5.743-5.531-8.083
				c-2.34-2.411-5.034-4.29-8.083-5.637c-3.049-1.347-6.311-2.021-9.785-2.021c-3.474,0-6.736,0.674-9.785,2.021
				c-3.049,1.347-5.743,3.226-8.083,5.637c-2.34,2.34-4.183,5.034-5.531,8.083s-2.021,6.346-2.021,9.891
				c0,3.474,0.674,6.772,2.021,9.891c1.347,3.049,3.191,5.743,5.531,8.083c2.34,2.34,5.034,4.183,8.083,5.531
				C111.841,506.043,115.103,506.716,118.577,506.716z"/>
			<circle class="st5" cx="47.349" cy="503.301" r="13.578"/>
		</g>
		
			<circle style="clip-path:url(#SVGID_00000181790275519613944410000004832339826231782835_);" cx="1532.345" cy="826.087" r="341.502"/>
		<g style="clip-path:url(#SVGID_00000181790275519613944410000004832339826231782835_);">
			<path d="M1673.122,128.914c3.129,0,6.104,0.616,8.925,1.847c2.821,1.282,5.334,3.001,7.54,5.155
				c2.154,2.206,3.873,4.719,5.155,7.54c1.231,2.821,1.847,5.796,1.847,8.925c0,3.129-0.615,6.104-1.847,8.925
				c-1.282,2.821-3.001,5.309-5.155,7.463c-2.206,2.206-4.719,3.924-7.54,5.155c-2.821,1.282-5.796,1.923-8.925,1.923
				c-3.129,0-6.104-0.641-8.925-1.923c-2.821-1.231-5.334-2.949-7.54-5.155c-2.206-2.154-3.924-4.642-5.155-7.463
				c-1.282-2.821-1.923-5.796-1.923-8.925c0-3.129,0.641-6.104,1.923-8.925c1.231-2.821,2.949-5.335,5.155-7.54
				c2.206-2.154,4.719-3.873,7.54-5.155C1667.018,129.529,1669.993,128.914,1673.122,128.914z M1673.122,137.685
				c-2.052,0-3.95,0.359-5.694,1.077c-1.744,0.769-3.257,1.821-4.54,3.155c-1.334,1.334-2.359,2.898-3.078,4.693
				c-0.718,1.795-1.077,3.719-1.077,5.771c0,2.103,0.359,4.027,1.077,5.771c0.718,1.795,1.744,3.36,3.078,4.693
				c1.282,1.334,2.796,2.359,4.54,3.078c1.744,0.769,3.642,1.154,5.694,1.154c2.052,0,3.95-0.385,5.693-1.154
				c1.744-0.718,3.283-1.744,4.616-3.078c1.282-1.334,2.283-2.898,3.001-4.693c0.718-1.744,1.077-3.667,1.077-5.771
				c0-2.052-0.359-3.975-1.077-5.771c-0.718-1.795-1.718-3.36-3.001-4.693c-1.334-1.334-2.872-2.385-4.616-3.155
				C1677.072,138.044,1675.174,137.685,1673.122,137.685z"/>
			<path d="M1605.378,81.358c4.325,0,8.438,0.851,12.338,2.553c3.829,1.773,7.232,4.148,10.21,7.126
				c2.978,2.978,5.353,6.382,7.126,10.21c1.702,3.9,2.553,7.977,2.553,12.231c0,4.325-0.851,8.402-2.553,12.231
				c-1.773,3.9-4.148,7.339-7.126,10.317c-2.978,2.978-6.381,5.318-10.21,7.02c-3.9,1.773-8.012,2.659-12.338,2.659
				c-4.254,0-8.296-0.886-12.125-2.659c-3.9-1.702-7.339-4.042-10.317-7.02c-3.049-2.978-5.424-6.417-7.126-10.317
				c-1.773-3.829-2.659-7.906-2.659-12.231c0-4.254,0.886-8.331,2.659-12.231c1.702-3.829,4.077-7.268,7.126-10.317
				c2.978-2.978,6.417-5.318,10.317-7.02C1597.082,82.209,1601.124,81.358,1605.378,81.358z M1605.378,87.952
				c-3.474,0-6.736,0.673-9.785,2.021c-3.049,1.347-5.743,3.191-8.083,5.531c-2.34,2.34-4.183,5.034-5.531,8.083
				c-1.348,3.12-2.021,6.417-2.021,9.891c0,3.545,0.673,6.842,2.021,9.891c1.348,3.049,3.191,5.743,5.531,8.083
				c2.34,2.411,5.034,4.29,8.083,5.637c3.049,1.347,6.311,2.021,9.785,2.021c3.474,0,6.736-0.674,9.785-2.021
				c3.049-1.347,5.743-3.226,8.083-5.637c2.34-2.34,4.183-5.034,5.531-8.083c1.347-3.049,2.021-6.346,2.021-9.891
				c0-3.474-0.674-6.772-2.021-9.891c-1.347-3.049-3.191-5.743-5.531-8.083c-2.34-2.34-5.034-4.183-8.083-5.531
				C1612.114,88.626,1608.853,87.952,1605.378,87.952z"/>
			<circle cx="1676.607" cy="91.367" r="13.578"/>
		</g>
		
			<circle style="clip-path:url(#SVGID_00000181790275519613944410000004832339826231782835_);fill:#FFFFFF;" cx="1185.641" cy="1823.304" r="226.526"/>
	</g>
	<g style="clip-path:url(#SVGID_00000020372139920391835350000004786951587140604551_);">
		<g>
			<defs>
				
					<rect id="SVGID_00000000908493944996682050000010270533679468980119_" x="-25.922" y="3302.479" width="6167.109" height="2569.972"/>
			</defs>
			<clipPath id="SVGID_00000123439273204896732530000002111553637034701964_">
				<use xlink:href="#SVGID_00000000908493944996682050000010270533679468980119_"  style="overflow:visible;"/>
			</clipPath>
			<path style="clip-path:url(#SVGID_00000123439273204896732530000002111553637034701964_);fill:#010101;" d="M6146.134,2431.23
				c0.299,972.366,0.25,1944.734,0.739,2917.097c0.006,12.091-3.231,14.461-19.722,14.458c-2044.13-0.351-4088.264-0.351-6132.396,0
				c-16.49,0.002-19.744-2.367-19.728-14.458c0.556-395.538,0.459-791.076,0.459-1186.616c7.792,1.708,14.229-1.8,20.367-3.823
				c102.592-33.833,208.695-60.023,317.278-81.488c105.647-20.883,212.579-35.735,321.12-45.838
				c78.184-7.276,156.59-11.761,235.108-13.062c65.391-1.083,130.884-1.746,196.564,2.136c60.662,3.588,121.347,6.98,182.023,10.793
				c90.57,5.694,179.941,17.045,268.86,29.488c133.64,18.701,265.279,44.003,395.813,72.414
				c207.533,45.168,410.325,100.193,613.046,155.524c214.102,58.436,428.158,116.961,647.206,165.109
				c215.017,47.266,432.623,85.582,654.369,111.908c102.698,12.192,205.75,21.869,308.93,30.823
				c77.263,6.704,155.022,10.944,232.722,14.209c86.244,3.625,172.647,5.538,259.022,7.022
				c98.362,1.689,196.522-2.963,294.756-6.266c76.183-2.561,151.791-8.115,227.518-14.131
				c84.399-6.704,167.893-16.793,251.287-28.256c128.96-17.726,255.662-41.539,380.398-71.123
				c115.967-27.501,227.325-63.034,335.754-103.779c17.627-6.624,24.504-13.674,24.492-28.729
				c-0.601-649.181-0.514-1298.361-0.514-1947.542C6151.565,2420.281,6146.134,2426.654,6146.134,2431.23z"/>
		</g>
	</g>
</g>
<ellipse class="st7" cx="-486.249" cy="2009.302" rx="626.135" ry="760.455"/>
<ellipse cx="-486.249" cy="2009.302" rx="521.198" ry="633.008"/>
</svg>
