<?xml version="1.0" encoding="utf-8"?>
<!-- Generator: Adobe Illustrator 26.5.0, SVG Export Plug-In . SVG Version: 6.00 Build 0)  -->
<svg version="1.1" id="Layer_1" xmlns="http://www.w3.org/2000/svg" xmlns:xlink="http://www.w3.org/1999/xlink" x="0px" y="0px"
	 width="1920px" height="5000px" viewBox="0 0 1920 5000" style="enable-background:new 0 0 1920 5000;" xml:space="preserve">
<style type="text/css">
	.st0{clip-path:url(#SVGID_00000072282694640870989050000007154721320888918914_);}
	.st1{clip-path:url(#SVGID_00000174583809052453378560000000533041939603303829_);}
	.st2{clip-path:url(#SVGID_00000074442418127702611220000011741662263218302884_);fill:#FFFFFF;}
	.st3{clip-path:url(#SVGID_00000114060073281679896270000014173304254133441715_);fill:#010101;}
	.st4{clip-path:url(#SVGID_00000174583809052453378560000000533041939603303829_);fill:#FFFFFF;}
	.st5{fill:#FFFFFF;}
	.st6{clip-path:url(#SVGID_00000145774971112688966660000000835818689777827978_);fill:#FFFFFF;}
	.st7{clip-path:url(#SVGID_00000109722555685221443290000003425435488630385314_);fill:#010101;}
</style>
<g>
	<defs>
		<rect id="SVGID_1_" width="1920" height="5000"/>
	</defs>
	<clipPath id="SVGID_00000011732044069385145440000006667051584890582198_">
		<use xlink:href="#SVGID_1_"  style="overflow:visible;"/>
	</clipPath>
	<g style="clip-path:url(#SVGID_00000011732044069385145440000006667051584890582198_);">
		<defs>
			<rect id="SVGID_00000051367295812086426030000005316783073657550986_" x="-1.77" y="12.662" width="1921.77" height="4987.338"/>
		</defs>
		<clipPath id="SVGID_00000171684787423973350880000008556158771515948676_">
			<use xlink:href="#SVGID_00000051367295812086426030000005316783073657550986_"  style="overflow:visible;"/>
		</clipPath>
		<g style="clip-path:url(#SVGID_00000171684787423973350880000008556158771515948676_);">
			<g>
				<defs>
					<rect id="SVGID_00000140734794911790696260000009033413684923509649_" width="1920" height="1091"/>
				</defs>
				<clipPath id="SVGID_00000096761468323016188700000010932406003507147667_">
					<use xlink:href="#SVGID_00000140734794911790696260000009033413684923509649_"  style="overflow:visible;"/>
				</clipPath>
				<path style="clip-path:url(#SVGID_00000096761468323016188700000010932406003507147667_);fill:#FFFFFF;" d="M-0.13-483.858
					c637.468,0,1274.936,0.009,1912.404-0.142c5.733-0.001,7.482,0.664,7.476,7.096c-0.222,244.555-0.188,489.11-0.188,733.665
					c-3.872,2.715-7.219,0.192-10.525-1.248c-46.488-20.256-94.795-34.623-144.498-44.346
					c-33.872-6.626-68.069-10.45-102.562-12.482c-20.252-1.193-40.472-1.53-60.664-1.006c-47.005,1.22-93.681,6.184-140.022,14.297
					c-72.817,12.748-143.752,32.625-213.615,56.453c-60.083,20.492-119.372,43.189-178.881,65.269
					c-95.009,35.252-191.304,66.164-290.824,86.171c-52.709,10.596-105.817,18.573-159.352,23.662
					c-43.01,4.088-86.122,5.993-129.282,7.909c-32.81,1.457-65.477,0.34-98.081-0.972c-67.998-2.735-135.344-11.545-201.684-27.366
					c-45.789-10.92-90.736-24.321-134.102-42.766c-16.801-7.146-33.066-15.399-49.398-23.531c-5.113-2.546-7.043-5.992-7.04-11.803
					C-0.841,70.664-0.859-203.673-0.833-478.01C-0.833-479.966-1.37-482.033-0.13-483.858z"/>
			</g>
			<g>
				<defs>
					<rect id="SVGID_00000113355293342678436690000016691729042391888048_" width="1920" height="1091"/>
				</defs>
				<clipPath id="SVGID_00000052084535271730209590000007958249173999149985_">
					<use xlink:href="#SVGID_00000113355293342678436690000016691729042391888048_"  style="overflow:visible;"/>
				</clipPath>
				<path style="clip-path:url(#SVGID_00000052084535271730209590000007958249173999149985_);fill:#010101;" d="M-0.13-375.858
					c0,275.589,0.027,551.178-0.16,826.767c-0.004,6.391,2.137,9.384,7.625,12.196c33.757,17.297,68.426,32.381,104.53,44.056
					c38.834,12.559,78.28,22.668,118.429,30.193c25.963,4.866,51.957,9.149,78.233,11.995c23.576,2.554,47.115,4.912,70.833,5.999
					c30.583,1.402,61.143,3.377,91.766,2.66c26.891-0.63,53.791-1.442,80.641-2.981c24.19-1.386,48.399-3.186,72.453-6.032
					c32.123-3.801,64.206-7.909,96.179-13.085c69.036-11.176,136.783-27.442,203.724-47.507
					c68.196-20.44,134.838-45.285,201.494-70.092c63.113-23.489,126.248-46.848,190.859-66.023
					c40.639-12.061,81.622-22.802,123.228-30.741c27.683-5.282,55.507-10.101,83.704-12.518c18.89-1.619,37.783-3.059,56.669-4.582
					c20.448-1.648,40.838-1.367,61.196-0.907c24.445,0.552,48.855,2.456,73.196,5.545c33.792,4.289,67.083,10.594,99.974,19.459
					c33.805,9.112,66.838,20.23,98.778,34.593c1.911,0.859,3.915,2.348,6.341,1.623c0,167.914-0.03,335.827,0.143,503.74
					c0.005,5.133-1.008,6.139-6.142,6.138c-636.398-0.149-1272.796-0.149-1909.193,0c-5.134,0.001-6.142-1.005-6.14-6.138
					C-1.618,455.714-1.633,42.926-1.54-369.861C-1.54-371.804-3.231-374.509-0.13-375.858z"/>
			</g>
		</g>
		
			<rect x="-1.77" y="868.5" style="clip-path:url(#SVGID_00000171684787423973350880000008556158771515948676_);" width="1921.77" height="4131.5"/>
		
			<circle style="clip-path:url(#SVGID_00000171684787423973350880000008556158771515948676_);fill:#FFFFFF;" cx="1532.345" cy="826.087" r="387.655"/>
		<g style="clip-path:url(#SVGID_00000171684787423973350880000008556158771515948676_);">
			<path class="st5" d="M50.834,465.755c-3.129,0-6.104-0.616-8.925-1.847c-2.821-1.282-5.335-3.001-7.54-5.155
				c-2.154-2.206-3.873-4.719-5.155-7.54c-1.231-2.821-1.847-5.796-1.847-8.925c0-3.129,0.616-6.104,1.847-8.925
				c1.282-2.821,3.001-5.309,5.155-7.463c2.206-2.206,4.719-3.924,7.54-5.155c2.821-1.282,5.796-1.923,8.925-1.923
				s6.104,0.641,8.925,1.923c2.821,1.231,5.335,2.949,7.54,5.155c2.206,2.154,3.924,4.642,5.155,7.463
				c1.282,2.821,1.924,5.796,1.924,8.925c0,3.129-0.641,6.104-1.924,8.925c-1.231,2.821-2.949,5.335-5.155,7.54
				c-2.206,2.154-4.719,3.873-7.54,5.155C56.938,465.139,53.963,465.755,50.834,465.755z M50.834,456.983
				c2.052,0,3.95-0.359,5.694-1.077c1.744-0.769,3.257-1.821,4.539-3.155c1.334-1.334,2.359-2.898,3.078-4.693
				c0.718-1.795,1.077-3.719,1.077-5.771c0-2.103-0.359-4.027-1.077-5.771c-0.718-1.795-1.744-3.36-3.078-4.693
				c-1.282-1.334-2.796-2.359-4.539-3.078c-1.744-0.769-3.642-1.154-5.694-1.154s-3.95,0.385-5.694,1.154
				c-1.744,0.718-3.283,1.744-4.616,3.078c-1.282,1.334-2.283,2.898-3.001,4.693c-0.718,1.744-1.077,3.667-1.077,5.771
				c0,2.052,0.359,3.975,1.077,5.771c0.718,1.795,1.718,3.36,3.001,4.693c1.334,1.334,2.872,2.385,4.616,3.155
				C46.884,456.624,48.782,456.983,50.834,456.983z"/>
			<path class="st5" d="M118.577,513.31c-4.325,0-8.438-0.851-12.338-2.553c-3.829-1.773-7.232-4.148-10.21-7.126
				c-2.978-2.978-5.353-6.382-7.126-10.21c-1.702-3.9-2.553-7.977-2.553-12.231c0-4.325,0.851-8.402,2.553-12.231
				c1.773-3.9,4.148-7.339,7.126-10.317s6.382-5.318,10.21-7.02c3.9-1.773,8.012-2.659,12.338-2.659
				c4.254,0,8.296,0.886,12.125,2.659c3.9,1.702,7.339,4.042,10.317,7.02c3.049,2.978,5.424,6.417,7.126,10.317
				c1.773,3.829,2.659,7.906,2.659,12.231c0,4.254-0.886,8.331-2.659,12.231c-1.702,3.829-4.077,7.268-7.126,10.317
				c-2.978,2.978-6.417,5.318-10.317,7.02C126.873,512.46,122.832,513.31,118.577,513.31z M118.577,506.716
				c3.474,0,6.736-0.673,9.785-2.021c3.049-1.347,5.743-3.191,8.083-5.531c2.34-2.34,4.183-5.034,5.531-8.083
				c1.348-3.12,2.021-6.417,2.021-9.891c0-3.545-0.673-6.842-2.021-9.891s-3.191-5.743-5.531-8.083
				c-2.34-2.411-5.034-4.29-8.083-5.637c-3.049-1.347-6.311-2.021-9.785-2.021c-3.474,0-6.736,0.674-9.785,2.021
				c-3.049,1.347-5.743,3.226-8.083,5.637c-2.34,2.34-4.183,5.034-5.531,8.083s-2.021,6.346-2.021,9.891
				c0,3.474,0.674,6.772,2.021,9.891c1.347,3.049,3.191,5.743,5.531,8.083c2.34,2.34,5.034,4.183,8.083,5.531
				C111.841,506.043,115.103,506.716,118.577,506.716z"/>
			<circle class="st5" cx="47.349" cy="503.301" r="13.578"/>
		</g>
		
			<circle style="clip-path:url(#SVGID_00000171684787423973350880000008556158771515948676_);" cx="1532.345" cy="826.087" r="341.502"/>
		<g style="clip-path:url(#SVGID_00000171684787423973350880000008556158771515948676_);">
			<path d="M1673.122,128.914c3.129,0,6.104,0.616,8.925,1.847c2.821,1.282,5.334,3.001,7.54,5.155
				c2.154,2.206,3.873,4.719,5.155,7.54c1.231,2.821,1.847,5.796,1.847,8.925c0,3.129-0.615,6.104-1.847,8.925
				c-1.282,2.821-3.001,5.309-5.155,7.463c-2.206,2.206-4.719,3.924-7.54,5.155c-2.821,1.282-5.796,1.923-8.925,1.923
				c-3.129,0-6.104-0.641-8.925-1.923c-2.821-1.231-5.334-2.949-7.54-5.155c-2.206-2.154-3.924-4.642-5.155-7.463
				c-1.282-2.821-1.923-5.796-1.923-8.925c0-3.129,0.641-6.104,1.923-8.925c1.231-2.821,2.949-5.335,5.155-7.54
				c2.206-2.154,4.719-3.873,7.54-5.155C1667.018,129.529,1669.993,128.914,1673.122,128.914z M1673.122,137.685
				c-2.052,0-3.95,0.359-5.694,1.077c-1.744,0.769-3.257,1.821-4.54,3.155c-1.334,1.334-2.359,2.898-3.078,4.693
				c-0.718,1.795-1.077,3.719-1.077,5.771c0,2.103,0.359,4.027,1.077,5.771c0.718,1.795,1.744,3.36,3.078,4.693
				c1.282,1.334,2.796,2.359,4.54,3.078c1.744,0.769,3.642,1.154,5.694,1.154c2.052,0,3.95-0.385,5.693-1.154
				c1.744-0.718,3.283-1.744,4.616-3.078c1.282-1.334,2.283-2.898,3.001-4.693c0.718-1.744,1.077-3.667,1.077-5.771
				c0-2.052-0.359-3.975-1.077-5.771c-0.718-1.795-1.718-3.36-3.001-4.693c-1.334-1.334-2.872-2.385-4.616-3.155
				C1677.072,138.044,1675.174,137.685,1673.122,137.685z"/>
			<path d="M1605.378,81.358c4.325,0,8.438,0.851,12.338,2.553c3.829,1.773,7.232,4.148,10.21,7.126
				c2.978,2.978,5.353,6.382,7.126,10.21c1.702,3.9,2.553,7.977,2.553,12.231c0,4.325-0.851,8.402-2.553,12.231
				c-1.773,3.9-4.148,7.339-7.126,10.317c-2.978,2.978-6.381,5.318-10.21,7.02c-3.9,1.773-8.012,2.659-12.338,2.659
				c-4.254,0-8.296-0.886-12.125-2.659c-3.9-1.702-7.339-4.042-10.317-7.02c-3.049-2.978-5.424-6.417-7.126-10.317
				c-1.773-3.829-2.659-7.906-2.659-12.231c0-4.254,0.886-8.331,2.659-12.231c1.702-3.829,4.077-7.268,7.126-10.317
				c2.978-2.978,6.417-5.318,10.317-7.02C1597.082,82.209,1601.124,81.358,1605.378,81.358z M1605.378,87.952
				c-3.474,0-6.736,0.673-9.785,2.021c-3.049,1.347-5.743,3.191-8.083,5.531c-2.34,2.34-4.183,5.034-5.531,8.083
				c-1.348,3.12-2.021,6.417-2.021,9.891c0,3.545,0.673,6.842,2.021,9.891c1.348,3.049,3.191,5.743,5.531,8.083
				c2.34,2.411,5.034,4.29,8.083,5.637c3.049,1.347,6.311,2.021,9.785,2.021c3.474,0,6.736-0.674,9.785-2.021
				c3.049-1.347,5.743-3.226,8.083-5.637c2.34-2.34,4.183-5.034,5.531-8.083c1.347-3.049,2.021-6.346,2.021-9.891
				c0-3.474-0.674-6.772-2.021-9.891c-1.347-3.049-3.191-5.743-5.531-8.083c-2.34-2.34-5.034-4.183-8.083-5.531
				C1612.114,88.626,1608.853,87.952,1605.378,87.952z"/>
			<circle cx="1676.607" cy="91.367" r="13.578"/>
		</g>
		
			<circle style="clip-path:url(#SVGID_00000171684787423973350880000008556158771515948676_);fill:#FFFFFF;" cx="1185.641" cy="1823.304" r="226.526"/>
		<g style="clip-path:url(#SVGID_00000171684787423973350880000008556158771515948676_);">
			<g>
				<defs>
					
						<rect id="SVGID_00000046309185894240235450000004888693302005470120_" x="-883.782" y="2073.284" width="3294.914" height="1340.984"/>
				</defs>
				<clipPath id="SVGID_00000119088027531251532410000003835650037542383035_">
					<use xlink:href="#SVGID_00000046309185894240235450000004888693302005470120_"  style="overflow:visible;"/>
				</clipPath>
				<path style="clip-path:url(#SVGID_00000119088027531251532410000003835650037542383035_);fill:#FFFFFF;" d="M-885.211,4001.805
					c-0.045-337.197-0.014-674.393-0.232-1011.591c-0.005-7.143,3.307-11.378,12.081-14.508
					c28.027-9.995,55.94-20.139,84.772-28.923c74.42-22.671,151.554-39.143,230.133-52.565
					c113.846-19.446,229.419-30.275,346.11-33.636c55.952-1.613,112.012-2.986,168.317-1.195
					c74.067,2.355,148.051,4.697,221.861,9.721c91.871,6.255,183.01,16.06,273.464,29.084
					c170.786,24.591,336.038,62.586,499.083,105.916c102.124,27.139,203.869,55.037,306.978,80.224
					c119.892,29.288,241.624,53.719,366.585,69.388c79.526,9.972,159.627,16.073,240.292,17.573
					c34.651,0.644,69.351,0.23,104.105-1.236c59.194-2.498,117.879-7.198,176.007-15.342
					c85.295-11.951,168.195-29.61,247.973-54.507c5.674-1.77,11.417-4.871,18.062-1.534c0,300.591-0.058,601.181,0.323,901.772
					c0.01,7.906-2.991,8.723-12.829,8.722c-1093.96-0.186-2187.919-0.175-3281.879-0.175
					C-886.133,4006.75-885.211,4004.209-885.211,4001.805z"/>
			</g>
			<g>
				<defs>
					
						<rect id="SVGID_00000174604282863263720030000015865934583537994137_" x="-883.782" y="2073.284" width="3294.914" height="1340.984"/>
				</defs>
				<clipPath id="SVGID_00000016068360196694947690000008027820392981445797_">
					<use xlink:href="#SVGID_00000174604282863263720030000015865934583537994137_"  style="overflow:visible;"/>
				</clipPath>
				<path style="clip-path:url(#SVGID_00000016068360196694947690000008027820392981445797_);fill:#010101;" d="M-886.425,3868.876
					c-0.16-507.37-0.134-1014.741-0.395-1522.11c-0.003-6.309,1.726-7.546,10.537-7.544c1092.122,0.183,2184.245,0.183,3276.368,0
					c8.81-0.001,10.549,1.235,10.54,7.544c-0.297,206.387-0.245,412.775-0.245,619.163c-4.163-0.891-7.602,0.939-10.882,1.995
					c-54.812,17.654-111.5,31.32-169.513,42.52c-56.444,10.896-113.575,18.646-171.565,23.918
					c-41.772,3.797-83.662,6.137-125.612,6.815c-34.936,0.565-69.928,0.911-105.019-1.115c-32.41-1.872-64.833-3.642-97.25-5.632
					c-48.389-2.971-96.138-8.894-143.645-15.386c-71.4-9.758-141.731-22.96-211.472-37.785
					c-110.879-23.569-219.225-52.28-327.533-81.151c-114.388-30.491-228.753-61.029-345.784-86.152
					c-114.878-24.663-231.138-44.656-349.611-58.392c-54.869-6.362-109.927-11.411-165.053-16.083
					c-41.279-3.498-82.824-5.71-124.337-7.414c-46.077-1.892-92.24-2.89-138.388-3.664c-52.552-0.881-104.996,1.546-157.48,3.269
					c-40.703,1.336-81.098,4.234-121.557,7.374c-45.092,3.498-89.701,8.762-134.256,14.743
					c-68.9,9.249-136.593,21.675-203.236,37.111c-61.958,14.35-121.454,32.89-179.384,54.151
					c-9.418,3.456-13.092,7.135-13.085,14.99c0.321,338.735,0.275,677.471,0.275,1016.206
					C-889.327,3874.589-886.425,3871.264-886.425,3868.876z"/>
			</g>
		</g>
		
			<rect y="3295.037" style="clip-path:url(#SVGID_00000171684787423973350880000008556158771515948676_);fill:#FFFFFF;" width="1920" height="1704.963"/>
	</g>
</g>
</svg>
